<svg width="155" height="155" viewBox="0 0 155 155" fill="none" xmlns="http://www.w3.org/2000/svg">
<rect x="0.75" y="0.75" width="153.5" height="153.5" rx="3.38763" stroke="#158A8A" stroke-width="1.5"/>
<path d="M61.6027 132.974C61.9573 133.03 62.2793 133.175 62.5687 133.408C62.8673 133.641 63.1007 133.931 63.2687 134.276C63.446 134.621 63.5347 134.99 63.5347 135.382C63.5347 135.877 63.4087 136.325 63.1567 136.726C62.9047 137.118 62.536 137.431 62.0507 137.664C61.5747 137.888 61.01 138 60.3567 138H56.7167V128.242H60.2167C60.8793 128.242 61.444 128.354 61.9107 128.578C62.3773 128.793 62.7273 129.087 62.9607 129.46C63.194 129.833 63.3107 130.253 63.3107 130.72C63.3107 131.299 63.152 131.779 62.8347 132.162C62.5267 132.535 62.116 132.806 61.6027 132.974ZM57.9907 132.456H60.1327C60.73 132.456 61.192 132.316 61.5187 132.036C61.8453 131.756 62.0087 131.369 62.0087 130.874C62.0087 130.379 61.8453 129.992 61.5187 129.712C61.192 129.432 60.7207 129.292 60.1047 129.292H57.9907V132.456ZM60.2447 136.95C60.8793 136.95 61.374 136.801 61.7287 136.502C62.0833 136.203 62.2607 135.788 62.2607 135.256C62.2607 134.715 62.074 134.29 61.7007 133.982C61.3273 133.665 60.828 133.506 60.2027 133.506H57.9907V136.95H60.2447ZM68.6486 138.126C67.9299 138.126 67.2766 137.963 66.6886 137.636C66.1099 137.309 65.6526 136.847 65.3166 136.25C64.9899 135.643 64.8266 134.943 64.8266 134.15C64.8266 133.366 64.9946 132.675 65.3306 132.078C65.6759 131.471 66.1426 131.009 66.7306 130.692C67.3186 130.365 67.9766 130.202 68.7046 130.202C69.4326 130.202 70.0906 130.365 70.6786 130.692C71.2666 131.009 71.7286 131.467 72.0646 132.064C72.4099 132.661 72.5826 133.357 72.5826 134.15C72.5826 134.943 72.4053 135.643 72.0506 136.25C71.7053 136.847 71.2339 137.309 70.6366 137.636C70.0393 137.963 69.3766 138.126 68.6486 138.126ZM68.6486 137.006C69.1059 137.006 69.5353 136.899 69.9366 136.684C70.3379 136.469 70.6599 136.147 70.9026 135.718C71.1546 135.289 71.2806 134.766 71.2806 134.15C71.2806 133.534 71.1593 133.011 70.9166 132.582C70.6739 132.153 70.3566 131.835 69.9646 131.63C69.5726 131.415 69.1479 131.308 68.6906 131.308C68.2239 131.308 67.7946 131.415 67.4026 131.63C67.0199 131.835 66.7119 132.153 66.4786 132.582C66.2453 133.011 66.1286 133.534 66.1286 134.15C66.1286 134.775 66.2406 135.303 66.4646 135.732C66.6979 136.161 67.0059 136.483 67.3886 136.698C67.7713 136.903 68.1913 137.006 68.6486 137.006ZM75.5317 127.64V138H74.2577V127.64H75.5317ZM84.703 133.87C84.703 134.113 84.689 134.369 84.661 134.64H78.529C78.5757 135.396 78.8323 135.989 79.299 136.418C79.775 136.838 80.349 137.048 81.021 137.048C81.5717 137.048 82.029 136.922 82.393 136.67C82.7663 136.409 83.0277 136.063 83.177 135.634H84.549C84.3437 136.371 83.933 136.973 83.317 137.44C82.701 137.897 81.9357 138.126 81.021 138.126C80.293 138.126 79.6397 137.963 79.061 137.636C78.4917 137.309 78.0437 136.847 77.717 136.25C77.3903 135.643 77.227 134.943 77.227 134.15C77.227 133.357 77.3857 132.661 77.703 132.064C78.0203 131.467 78.4637 131.009 79.033 130.692C79.6117 130.365 80.2743 130.202 81.021 130.202C81.749 130.202 82.393 130.361 82.953 130.678C83.513 130.995 83.9423 131.434 84.241 131.994C84.549 132.545 84.703 133.17 84.703 133.87ZM83.387 133.604C83.387 133.119 83.2797 132.703 83.065 132.358C82.8503 132.003 82.5563 131.737 82.183 131.56C81.819 131.373 81.413 131.28 80.965 131.28C80.321 131.28 79.7703 131.485 79.313 131.896C78.865 132.307 78.6083 132.876 78.543 133.604H83.387ZM87.9386 131.378V135.9C87.9386 136.273 88.018 136.539 88.1766 136.698C88.3353 136.847 88.6106 136.922 89.0026 136.922H89.9406V138H88.7926C88.0833 138 87.5513 137.837 87.1966 137.51C86.842 137.183 86.6646 136.647 86.6646 135.9V131.378H85.6706V130.328H86.6646V128.396H87.9386V130.328H89.9406V131.378H87.9386ZM94.8303 138.126C94.1116 138.126 93.4583 137.963 92.8703 137.636C92.2916 137.309 91.8343 136.847 91.4983 136.25C91.1716 135.643 91.0083 134.943 91.0083 134.15C91.0083 133.366 91.1763 132.675 91.5123 132.078C91.8576 131.471 92.3243 131.009 92.9123 130.692C93.5003 130.365 94.1583 130.202 94.8863 130.202C95.6143 130.202 96.2723 130.365 96.8603 130.692C97.4483 131.009 97.9103 131.467 98.2463 132.064C98.5916 132.661 98.7643 133.357 98.7643 134.15C98.7643 134.943 98.5869 135.643 98.2323 136.25C97.8869 136.847 97.4156 137.309 96.8183 137.636C96.2209 137.963 95.5583 138.126 94.8303 138.126ZM94.8303 137.006C95.2876 137.006 95.7169 136.899 96.1183 136.684C96.5196 136.469 96.8416 136.147 97.0843 135.718C97.3363 135.289 97.4623 134.766 97.4623 134.15C97.4623 133.534 97.3409 133.011 97.0983 132.582C96.8556 132.153 96.5383 131.835 96.1463 131.63C95.7543 131.415 95.3296 131.308 94.8723 131.308C94.4056 131.308 93.9763 131.415 93.5843 131.63C93.2016 131.835 92.8936 132.153 92.6603 132.582C92.4269 133.011 92.3103 133.534 92.3103 134.15C92.3103 134.775 92.4223 135.303 92.6463 135.732C92.8796 136.161 93.1876 136.483 93.5703 136.698C93.9529 136.903 94.3729 137.006 94.8303 137.006Z" fill="#158A8A"/>
<path d="M37.8222 33C37.0737 33 36.3559 33.2973 35.8266 33.8266C35.2973 34.3559 35 35.0737 35 35.8222V97.9111C35 98.6596 35.2973 99.3775 35.8266 99.9067C36.3559 100.436 37.0737 100.733 37.8222 100.733C38.5707 100.733 39.2886 100.436 39.8178 99.9067C40.3471 99.3775 40.6444 98.6596 40.6444 97.9111V35.8222C40.6444 35.0737 40.3471 34.3559 39.8178 33.8266C39.2886 33.2973 38.5707 33 37.8222 33Z" fill="#158A8A"/>
<path d="M49.1109 33C48.3624 33 47.6446 33.2973 47.1153 33.8266C46.586 34.3559 46.2887 35.0737 46.2887 35.8222V86.6222C46.2887 87.3707 46.586 88.0886 47.1153 88.6178C47.6446 89.1471 48.3624 89.4445 49.1109 89.4445C49.8594 89.4445 50.5773 89.1471 51.1065 88.6178C51.6358 88.0886 51.9331 87.3707 51.9331 86.6222V35.8222C51.9331 35.0737 51.6358 34.3559 51.1065 33.8266C50.5773 33.2973 49.8594 33 49.1109 33Z" fill="#158A8A"/>
<path d="M60.3997 33C59.6512 33 58.9334 33.2973 58.4041 33.8266C57.8749 34.3559 57.5775 35.0737 57.5775 35.8222V86.6222C57.5775 87.3707 57.8749 88.0886 58.4041 88.6178C58.9334 89.1471 59.6512 89.4445 60.3997 89.4445C61.1482 89.4445 61.8661 89.1471 62.3953 88.6178C62.9246 88.0886 63.222 87.3707 63.222 86.6222V35.8222C63.222 35.0737 62.9246 34.3559 62.3953 33.8266C61.8661 33.2973 61.1482 33 60.3997 33Z" fill="#158A8A"/>
<path d="M71.689 33C70.9405 33 70.2227 33.2973 69.6934 33.8266C69.1642 34.3559 68.8668 35.0737 68.8668 35.8222V86.6222C68.8668 87.3707 69.1642 88.0886 69.6934 88.6178C70.2227 89.1471 70.9405 89.4445 71.689 89.4445C72.4375 89.4445 73.1554 89.1471 73.6847 88.6178C74.2139 88.0886 74.5113 87.3707 74.5113 86.6222V35.8222C74.5113 35.0737 74.2139 34.3559 73.6847 33.8266C73.1554 33.2973 72.4375 33 71.689 33Z" fill="#158A8A"/>
<path d="M82.9777 33C82.2292 33 81.5114 33.2973 80.9821 33.8266C80.4529 34.3559 80.1555 35.0737 80.1555 35.8222V86.6222C80.1555 87.3707 80.4529 88.0886 80.9821 88.6178C81.5114 89.1471 82.2292 89.4445 82.9777 89.4445C83.7262 89.4445 84.4441 89.1471 84.9734 88.6178C85.5026 88.0886 85.8 87.3707 85.8 86.6222V35.8222C85.8 35.0737 85.5026 34.3559 84.9734 33.8266C84.4441 33.2973 83.7262 33 82.9777 33Z" fill="#158A8A"/>
<path d="M94.2666 33C93.5181 33 92.8002 33.2973 92.2709 33.8266C91.7417 34.3559 91.4443 35.0737 91.4443 35.8222V86.6222C91.4443 87.3707 91.7417 88.0886 92.2709 88.6178C92.8002 89.1471 93.5181 89.4445 94.2666 89.4445C95.0151 89.4445 95.7329 89.1471 96.2622 88.6178C96.7914 88.0886 97.0888 87.3707 97.0888 86.6222V35.8222C97.0888 35.0737 96.7914 34.3559 96.2622 33.8266C95.7329 33.2973 95.0151 33 94.2666 33Z" fill="#158A8A"/>
<path d="M105.555 33C104.807 33 104.089 33.2973 103.56 33.8266C103.03 34.3559 102.733 35.0737 102.733 35.8222V86.6222C102.733 87.3707 103.03 88.0886 103.56 88.6178C104.089 89.1471 104.807 89.4445 105.555 89.4445C106.304 89.4445 107.022 89.1471 107.551 88.6178C108.08 88.0886 108.378 87.3707 108.378 86.6222V35.8222C108.378 35.0737 108.08 34.3559 107.551 33.8266C107.022 33.2973 106.304 33 105.555 33Z" fill="#158A8A"/>
<path d="M116.845 33C116.096 33 115.378 33.2973 114.849 33.8266C114.32 34.3559 114.022 35.0737 114.022 35.8222V97.9111C114.022 98.6596 114.32 99.3775 114.849 99.9067C115.378 100.436 116.096 100.733 116.845 100.733C117.593 100.733 118.311 100.436 118.84 99.9067C119.369 99.3775 119.667 98.6596 119.667 97.9111V35.8222C119.667 35.0737 119.369 34.3559 118.84 33.8266C118.311 33.2973 117.593 33 116.845 33Z" fill="#158A8A"/>
</svg>
