<svg width="155" height="155" viewBox="0 0 155 155" fill="none" xmlns="http://www.w3.org/2000/svg">
<rect x="0.75" y="0.75" width="153.5" height="153.5" rx="3.38763" stroke="#158A8A" stroke-width="1.5"/>
<path d="M53.5952 133.114C53.5952 132.162 53.8098 131.308 54.2392 130.552C54.6685 129.787 55.2518 129.189 55.9892 128.76C56.7358 128.331 57.5618 128.116 58.4672 128.116C59.5312 128.116 60.4598 128.373 61.2532 128.886C62.0465 129.399 62.6252 130.127 62.9892 131.07H61.4632C61.1925 130.482 60.8005 130.029 60.2872 129.712C59.7832 129.395 59.1765 129.236 58.4672 129.236C57.7858 129.236 57.1745 129.395 56.6332 129.712C56.0918 130.029 55.6672 130.482 55.3592 131.07C55.0512 131.649 54.8972 132.33 54.8972 133.114C54.8972 133.889 55.0512 134.57 55.3592 135.158C55.6672 135.737 56.0918 136.185 56.6332 136.502C57.1745 136.819 57.7858 136.978 58.4672 136.978C59.1765 136.978 59.7832 136.824 60.2872 136.516C60.8005 136.199 61.1925 135.746 61.4632 135.158H62.9892C62.6252 136.091 62.0465 136.815 61.2532 137.328C60.4598 137.832 59.5312 138.084 58.4672 138.084C57.5618 138.084 56.7358 137.874 55.9892 137.454C55.2518 137.025 54.6685 136.432 54.2392 135.676C53.8098 134.92 53.5952 134.066 53.5952 133.114ZM64.4096 134.136C64.4096 133.352 64.5683 132.666 64.8856 132.078C65.203 131.481 65.637 131.019 66.1876 130.692C66.7476 130.365 67.3683 130.202 68.0496 130.202C68.7216 130.202 69.305 130.347 69.7996 130.636C70.2943 130.925 70.663 131.289 70.9056 131.728V130.328H72.1936V138H70.9056V136.572C70.6536 137.02 70.2756 137.393 69.7716 137.692C69.277 137.981 68.6983 138.126 68.0356 138.126C67.3543 138.126 66.7383 137.958 66.1876 137.622C65.637 137.286 65.203 136.815 64.8856 136.208C64.5683 135.601 64.4096 134.911 64.4096 134.136ZM70.9056 134.15C70.9056 133.571 70.789 133.067 70.5556 132.638C70.3223 132.209 70.005 131.882 69.6036 131.658C69.2116 131.425 68.7776 131.308 68.3016 131.308C67.8256 131.308 67.3916 131.42 66.9996 131.644C66.6076 131.868 66.295 132.195 66.0616 132.624C65.8283 133.053 65.7116 133.557 65.7116 134.136C65.7116 134.724 65.8283 135.237 66.0616 135.676C66.295 136.105 66.6076 136.437 66.9996 136.67C67.3916 136.894 67.8256 137.006 68.3016 137.006C68.7776 137.006 69.2116 136.894 69.6036 136.67C70.005 136.437 70.3223 136.105 70.5556 135.676C70.789 135.237 70.9056 134.729 70.9056 134.15ZM75.6206 131.574C75.8446 131.135 76.1619 130.795 76.5726 130.552C76.9926 130.309 77.5012 130.188 78.0986 130.188V131.504H77.7626C76.3346 131.504 75.6206 132.279 75.6206 133.828V138H74.3466V130.328H75.6206V131.574ZM81.1232 131.378V135.9C81.1232 136.273 81.2025 136.539 81.3612 136.698C81.5199 136.847 81.7952 136.922 82.1872 136.922H83.1252V138H81.9772C81.2679 138 80.7359 137.837 80.3812 137.51C80.0265 137.183 79.8492 136.647 79.8492 135.9V131.378H78.8552V130.328H79.8492V128.396H81.1232V130.328H83.1252V131.378H81.1232ZM84.1928 134.136C84.1928 133.352 84.3515 132.666 84.6688 132.078C84.9862 131.481 85.4202 131.019 85.9708 130.692C86.5308 130.365 87.1515 130.202 87.8328 130.202C88.5048 130.202 89.0882 130.347 89.5828 130.636C90.0775 130.925 90.4462 131.289 90.6888 131.728V130.328H91.9768V138H90.6888V136.572C90.4368 137.02 90.0588 137.393 89.5548 137.692C89.0602 137.981 88.4815 138.126 87.8188 138.126C87.1375 138.126 86.5215 137.958 85.9708 137.622C85.4202 137.286 84.9862 136.815 84.6688 136.208C84.3515 135.601 84.1928 134.911 84.1928 134.136ZM90.6888 134.15C90.6888 133.571 90.5722 133.067 90.3388 132.638C90.1055 132.209 89.7882 131.882 89.3868 131.658C88.9948 131.425 88.5608 131.308 88.0848 131.308C87.6088 131.308 87.1748 131.42 86.7828 131.644C86.3908 131.868 86.0782 132.195 85.8448 132.624C85.6115 133.053 85.4948 133.557 85.4948 134.136C85.4948 134.724 85.6115 135.237 85.8448 135.676C86.0782 136.105 86.3908 136.437 86.7828 136.67C87.1748 136.894 87.6088 137.006 88.0848 137.006C88.5608 137.006 88.9948 136.894 89.3868 136.67C89.7882 136.437 90.1055 136.105 90.3388 135.676C90.5722 135.237 90.6888 134.729 90.6888 134.15ZM86.2788 129.502C86.3442 129.026 86.4982 128.662 86.7408 128.41C86.9928 128.158 87.3055 128.032 87.6788 128.032C87.8562 128.032 88.0055 128.065 88.1268 128.13C88.2575 128.186 88.4115 128.27 88.5888 128.382C88.7195 128.475 88.8362 128.55 88.9388 128.606C89.0415 128.653 89.1535 128.676 89.2748 128.676C89.4335 128.676 89.5688 128.625 89.6808 128.522C89.7928 128.419 89.8628 128.27 89.8908 128.074H90.6188C90.5628 128.541 90.4088 128.9 90.1568 129.152C89.9048 129.404 89.5922 129.53 89.2188 129.53C89.0415 129.53 88.8828 129.502 88.7428 129.446C88.6122 129.381 88.4628 129.287 88.2948 129.166C88.1455 129.073 88.0242 129.003 87.9308 128.956C87.8468 128.909 87.7442 128.886 87.6228 128.886C87.4642 128.886 87.3288 128.937 87.2168 129.04C87.1142 129.143 87.0488 129.297 87.0208 129.502H86.2788ZM97.4758 138.126C96.7571 138.126 96.1038 137.963 95.5158 137.636C94.9371 137.309 94.4798 136.847 94.1438 136.25C93.8171 135.643 93.6538 134.943 93.6538 134.15C93.6538 133.366 93.8218 132.675 94.1578 132.078C94.5031 131.471 94.9698 131.009 95.5578 130.692C96.1458 130.365 96.8038 130.202 97.5318 130.202C98.2598 130.202 98.9178 130.365 99.5058 130.692C100.094 131.009 100.556 131.467 100.892 132.064C101.237 132.661 101.41 133.357 101.41 134.15C101.41 134.943 101.232 135.643 100.878 136.25C100.532 136.847 100.061 137.309 99.4638 137.636C98.8664 137.963 98.2038 138.126 97.4758 138.126ZM97.4758 137.006C97.9331 137.006 98.3624 136.899 98.7638 136.684C99.1651 136.469 99.4871 136.147 99.7298 135.718C99.9818 135.289 100.108 134.766 100.108 134.15C100.108 133.534 99.9864 133.011 99.7438 132.582C99.5011 132.153 99.1838 131.835 98.7918 131.63C98.3998 131.415 97.9751 131.308 97.5178 131.308C97.0511 131.308 96.6218 131.415 96.2298 131.63C95.8471 131.835 95.5391 132.153 95.3058 132.582C95.0724 133.011 94.9558 133.534 94.9558 134.15C94.9558 134.775 95.0678 135.303 95.2918 135.732C95.5251 136.161 95.8331 136.483 96.2158 136.698C96.5984 136.903 97.0184 137.006 97.4758 137.006Z" fill="#158A8A"/>
<path d="M44 50.5C44 48.2457 44.8955 46.0837 46.4896 44.4896C48.0837 42.8955 50.2457 42 52.5 42H103.5C105.754 42 107.916 42.8955 109.51 44.4896C111.104 46.0837 112 48.2457 112 50.5V84.5C112 86.7543 111.104 88.9163 109.51 90.5104C107.916 92.1045 105.754 93 103.5 93H52.5C50.2457 93 48.0837 92.1045 46.4896 90.5104C44.8955 88.9163 44 86.7543 44 84.5V50.5ZM52.5 46.25C51.3728 46.25 50.2918 46.6978 49.4948 47.4948C48.6978 48.2918 48.25 49.3728 48.25 50.5V54.75H107.75V50.5C107.75 49.3728 107.302 48.2918 106.505 47.4948C105.708 46.6978 104.627 46.25 103.5 46.25H52.5ZM107.75 63.25H48.25V84.5C48.25 85.6272 48.6978 86.7082 49.4948 87.5052C50.2918 88.3022 51.3728 88.75 52.5 88.75H103.5C104.627 88.75 105.708 88.3022 106.505 87.5052C107.302 86.7082 107.75 85.6272 107.75 84.5V63.25Z" fill="#158A8A"/>
<path d="M52.5 76C52.5 74.8728 52.9478 73.7918 53.7448 72.9948C54.5418 72.1978 55.6228 71.75 56.75 71.75H61C62.1272 71.75 63.2082 72.1978 64.0052 72.9948C64.8022 73.7918 65.25 74.8728 65.25 76V80.25C65.25 81.3772 64.8022 82.4582 64.0052 83.2552C63.2082 84.0522 62.1272 84.5 61 84.5H56.75C55.6228 84.5 54.5418 84.0522 53.7448 83.2552C52.9478 82.4582 52.5 81.3772 52.5 80.25V76Z" fill="#158A8A"/>
</svg>
