<svg width="155" height="155" viewBox="0 0 155 155" fill="none" xmlns="http://www.w3.org/2000/svg">
<rect x="0.75" y="0.75" width="153.5" height="153.5" rx="3.38763" stroke="#158A8A" stroke-width="1.5"/>
<path d="M75.976 125.098C75.976 125.91 75.696 126.587 75.136 127.128C74.5854 127.66 73.7407 127.926 72.602 127.926H70.726V132H69.452V122.242H72.602C73.7034 122.242 74.5387 122.508 75.108 123.04C75.6867 123.572 75.976 124.258 75.976 125.098ZM72.602 126.876C73.3114 126.876 73.834 126.722 74.17 126.414C74.506 126.106 74.674 125.667 74.674 125.098C74.674 123.894 73.9834 123.292 72.602 123.292H70.726V126.876H72.602ZM78.2174 123.082C77.9748 123.082 77.7694 122.998 77.6014 122.83C77.4334 122.662 77.3494 122.457 77.3494 122.214C77.3494 121.971 77.4334 121.766 77.6014 121.598C77.7694 121.43 77.9748 121.346 78.2174 121.346C78.4508 121.346 78.6468 121.43 78.8054 121.598C78.9734 121.766 79.0574 121.971 79.0574 122.214C79.0574 122.457 78.9734 122.662 78.8054 122.83C78.6468 122.998 78.4508 123.082 78.2174 123.082ZM78.8334 124.328V132H77.5594V124.328H78.8334ZM85.0088 132L83.1888 129.144L81.4388 132H80.1088L82.5868 128.192L80.1088 124.328H81.5508L83.3708 127.17L85.1068 124.328H86.4368L83.9728 128.122L86.4508 132H85.0088Z" fill="#158A8A"/>
<path d="M71.9394 85.4066L63.691 77.1805C64.2695 77.0131 64.7954 76.8177 65.2769 76.599C66.9326 75.8468 67.8892 74.8888 68.467 74.3102C68.4844 74.2927 68.5015 74.2756 68.5183 74.2589L77.4048 65.3723L86.2594 74.2269C87.5952 75.5626 88.9895 76.4282 90.4309 76.9729L81.9745 85.4066L81.9732 85.4079C80.6422 86.7372 78.838 87.4839 76.9569 87.4839C75.0758 87.4839 73.2716 86.7372 71.9406 85.4079L71.9394 85.4066ZM63.7647 38.8364L72.0353 30.5881L72.0366 30.5868C73.3676 29.2575 75.1718 28.5108 77.0529 28.5108C78.934 28.5108 80.7382 29.2575 82.0692 30.5868L82.0704 30.5881L90.5007 38.9957C88.9999 39.5443 87.5401 40.4354 86.1781 41.8492L77.4048 50.6224L68.5183 41.7359C68.4944 41.712 68.4697 41.6871 68.4439 41.6613C67.9165 41.1316 66.983 40.1942 65.3721 39.4425C64.8861 39.2157 64.3529 39.0116 63.7647 38.8364Z" stroke="#158A8A" stroke-width="5"/>
<path d="M104.365 52.8823L104.372 52.8895C105.726 54.2385 106.491 56.0685 106.5 57.9798C106.509 59.8891 105.763 61.7243 104.424 63.0854C104.422 63.0868 104.421 63.0883 104.42 63.0897L97.9627 69.5752H94.9702C93.8797 69.5752 92.8501 69.1391 92.0987 68.3877L82.4682 58.7572C82.1744 58.4635 81.861 58.2011 81.5321 57.9701C81.8493 57.7445 82.152 57.4897 82.4362 57.2055L92.0347 47.607L92.0579 47.5838L92.0806 47.5599C92.7659 46.8375 93.825 46.3876 94.9062 46.3876H97.8988L104.365 52.8823ZM73.3197 57.9856C72.9989 58.2129 72.6928 58.47 72.4057 58.7572L62.7559 68.4069C61.9549 69.1823 60.9138 69.6071 59.8717 69.6071H56.1751L49.5812 62.9844L49.5784 62.9816C48.2491 61.6507 47.5024 59.8465 47.5024 57.9654C47.5024 56.0843 48.2491 54.2801 49.5784 52.9491L49.5812 52.9463L56.1751 46.3236H59.8397C60.9295 46.3236 61.9586 46.7592 62.7099 47.5098C62.7104 47.5102 62.7108 47.5106 62.7112 47.511L72.3707 57.2026L72.3883 57.2202L72.4062 57.2375C72.6918 57.5128 72.9974 57.7626 73.3197 57.9856Z" stroke="#158A8A" stroke-width="5"/>
</svg>
