<svg width="155" height="155" viewBox="0 0 155 155" fill="none" xmlns="http://www.w3.org/2000/svg">
<rect x="0.75" y="0.75" width="153.5" height="153.5" rx="3.38763" stroke="#158A8A" stroke-width="1.5"/>
<path d="M55.8174 133.847L53.8724 131.902C53.3967 132.033 52.9116 132.098 52.4172 132.098C51.5123 132.098 50.6867 131.888 49.9405 131.468C49.1942 131.039 48.6018 130.447 48.1634 129.691C47.7343 128.926 47.5197 128.068 47.5197 127.117C47.5197 126.165 47.7343 125.311 48.1634 124.556C48.6018 123.791 49.1942 123.199 49.9405 122.779C50.6867 122.35 51.5123 122.135 52.4172 122.135C53.3314 122.135 54.1616 122.35 54.9079 122.779C55.6542 123.199 56.2419 123.786 56.671 124.542C57.1001 125.297 57.3147 126.156 57.3147 127.117C57.3147 128.049 57.1095 128.889 56.699 129.635C56.2885 130.381 55.7242 130.969 55.0059 131.398L57.4686 133.847H55.8174ZM48.821 127.117C48.821 127.891 48.975 128.572 49.2828 129.159C49.6 129.747 50.0291 130.2 50.5701 130.517C51.1205 130.834 51.7362 130.993 52.4172 130.993C53.0982 130.993 53.7092 130.834 54.2503 130.517C54.8006 130.2 55.2298 129.747 55.5376 129.159C55.8548 128.572 56.0133 127.891 56.0133 127.117C56.0133 126.333 55.8548 125.652 55.5376 125.074C55.2298 124.486 54.8053 124.033 54.2642 123.716C53.7232 123.399 53.1075 123.24 52.4172 123.24C51.7269 123.24 51.1112 123.399 50.5701 123.716C50.0291 124.033 49.6 124.486 49.2828 125.074C48.975 125.652 48.821 126.333 48.821 127.117ZM64.1584 132L61.8356 128.012H60.2964V132H59.023V122.247H62.1714C62.9084 122.247 63.5287 122.373 64.0324 122.625C64.5455 122.877 64.928 123.217 65.1799 123.646C65.4317 124.075 65.5577 124.565 65.5577 125.116C65.5577 125.787 65.3618 126.38 64.97 126.893C64.5875 127.406 64.0091 127.746 63.2349 127.914L65.6836 132H64.1584ZM60.2964 126.991H62.1714C62.8617 126.991 63.3794 126.823 63.7246 126.487C64.0698 126.142 64.2423 125.685 64.2423 125.116C64.2423 124.537 64.0698 124.089 63.7246 123.772C63.3888 123.455 62.871 123.296 62.1714 123.296H60.2964V126.991ZM70.791 127.117C70.791 126.165 71.0055 125.311 71.4347 124.556C71.8638 123.791 72.4468 123.194 73.1838 122.765C73.93 122.336 74.7556 122.121 75.6605 122.121C76.7239 122.121 77.6521 122.378 78.4451 122.891C79.238 123.404 79.8164 124.131 80.1802 125.074H78.655C78.3844 124.486 77.9926 124.033 77.4796 123.716C76.9758 123.399 76.3695 123.24 75.6605 123.24C74.9795 123.24 74.3685 123.399 73.8274 123.716C73.2864 124.033 72.8619 124.486 72.5541 125.074C72.2462 125.652 72.0923 126.333 72.0923 127.117C72.0923 127.891 72.2462 128.572 72.5541 129.159C72.8619 129.738 73.2864 130.186 73.8274 130.503C74.3685 130.82 74.9795 130.979 75.6605 130.979C76.3695 130.979 76.9758 130.825 77.4796 130.517C77.9926 130.2 78.3844 129.747 78.655 129.159H80.1802C79.8164 130.092 79.238 130.815 78.4451 131.328C77.6521 131.832 76.7239 132.084 75.6605 132.084C74.7556 132.084 73.93 131.874 73.1838 131.454C72.4468 131.025 71.8638 130.433 71.4347 129.677C71.0055 128.922 70.791 128.068 70.791 127.117ZM85.4199 132.126C84.7016 132.126 84.0486 131.963 83.4609 131.636C82.8826 131.31 82.4255 130.848 82.0896 130.251C81.7631 129.645 81.5999 128.945 81.5999 128.152C81.5999 127.368 81.7678 126.678 82.1036 126.081C82.4488 125.475 82.9152 125.013 83.5029 124.696C84.0906 124.369 84.7483 124.206 85.4759 124.206C86.2035 124.206 86.8612 124.369 87.4489 124.696C88.0366 125.013 88.4984 125.47 88.8342 126.067C89.1794 126.664 89.3519 127.359 89.3519 128.152C89.3519 128.945 89.1747 129.645 88.8202 130.251C88.475 130.848 88.004 131.31 87.4069 131.636C86.8099 131.963 86.1476 132.126 85.4199 132.126ZM85.4199 131.007C85.877 131.007 86.3062 130.899 86.7073 130.685C87.1084 130.47 87.4302 130.148 87.6728 129.719C87.9247 129.29 88.0506 128.768 88.0506 128.152C88.0506 127.536 87.9293 127.014 87.6868 126.585C87.4442 126.156 87.1271 125.838 86.7353 125.633C86.3435 125.419 85.919 125.311 85.4619 125.311C84.9955 125.311 84.5664 125.419 84.1746 125.633C83.7921 125.838 83.4843 126.156 83.2511 126.585C83.0178 127.014 82.9012 127.536 82.9012 128.152C82.9012 128.777 83.0132 129.304 83.2371 129.733C83.4703 130.162 83.7781 130.484 84.1606 130.699C84.5431 130.904 84.9628 131.007 85.4199 131.007ZM90.5504 128.138C90.5504 127.354 90.709 126.669 91.0262 126.081C91.3433 125.484 91.7771 125.022 92.3275 124.696C92.8872 124.369 93.5122 124.206 94.2025 124.206C94.7996 124.206 95.3546 124.346 95.8677 124.626C96.3807 124.896 96.7725 125.255 97.0431 125.703V121.645H98.3304V132H97.0431V130.559C96.7912 131.016 96.4181 131.394 95.9236 131.692C95.4292 131.981 94.8509 132.126 94.1885 132.126C93.5075 132.126 92.8872 131.958 92.3275 131.622C91.7771 131.286 91.3433 130.815 91.0262 130.209C90.709 129.603 90.5504 128.912 90.5504 128.138ZM97.0431 128.152C97.0431 127.574 96.9265 127.07 96.6932 126.641C96.46 126.212 96.1429 125.885 95.7417 125.661C95.3499 125.428 94.9162 125.311 94.4404 125.311C93.9646 125.311 93.5309 125.423 93.1391 125.647C92.7473 125.871 92.4348 126.198 92.2016 126.627C91.9683 127.056 91.8517 127.56 91.8517 128.138C91.8517 128.726 91.9683 129.239 92.2016 129.677C92.4348 130.106 92.7473 130.437 93.1391 130.671C93.5309 130.895 93.9646 131.007 94.4404 131.007C94.9162 131.007 95.3499 130.895 95.7417 130.671C96.1429 130.437 96.46 130.106 96.6932 129.677C96.9265 129.239 97.0431 128.73 97.0431 128.152ZM107.479 127.872C107.479 128.115 107.465 128.371 107.437 128.642H101.308C101.354 129.397 101.611 129.99 102.077 130.419C102.553 130.839 103.127 131.048 103.799 131.048C104.349 131.048 104.806 130.923 105.17 130.671C105.543 130.409 105.804 130.064 105.953 129.635H107.325C107.12 130.372 106.709 130.974 106.093 131.44C105.478 131.897 104.713 132.126 103.799 132.126C103.071 132.126 102.418 131.963 101.84 131.636C101.271 131.31 100.823 130.848 100.496 130.251C100.17 129.645 100.006 128.945 100.006 128.152C100.006 127.359 100.165 126.664 100.482 126.067C100.799 125.47 101.243 125.013 101.812 124.696C102.39 124.369 103.052 124.206 103.799 124.206C104.526 124.206 105.17 124.365 105.73 124.682C106.289 124.999 106.718 125.437 107.017 125.997C107.325 126.547 107.479 127.172 107.479 127.872ZM106.163 127.606C106.163 127.121 106.056 126.706 105.842 126.361C105.627 126.006 105.333 125.741 104.96 125.563C104.596 125.377 104.19 125.283 103.743 125.283C103.099 125.283 102.549 125.489 102.091 125.899C101.644 126.31 101.387 126.879 101.322 127.606H106.163Z" fill="#158A8A"/>
<path d="M66.3636 84.1818H54.7273C53.9557 84.1818 53.2158 83.8753 52.6702 83.3298C52.1247 82.7842 51.8182 82.0443 51.8182 81.2727V69.6364C51.8182 68.8648 51.5117 68.1249 50.9661 67.5793C50.4206 67.0338 49.6806 66.7273 48.9091 66.7273C48.1376 66.7273 47.3976 67.0338 46.8521 67.5793C46.3065 68.1249 46 68.8648 46 69.6364V81.2727C46 83.5873 46.9195 85.8072 48.5562 87.4438C50.1928 89.0805 52.4127 90 54.7273 90H66.3636C67.1352 90 67.8751 89.6935 68.4207 89.1479C68.9662 88.6024 69.2727 87.8624 69.2727 87.0909C69.2727 86.3194 68.9662 85.5794 68.4207 85.0339C67.8751 84.4883 67.1352 84.1818 66.3636 84.1818ZM107.091 66.7273C106.319 66.7273 105.579 67.0338 105.034 67.5793C104.488 68.1249 104.182 68.8648 104.182 69.6364V81.2727C104.182 82.0443 103.875 82.7842 103.33 83.3298C102.784 83.8753 102.044 84.1818 101.273 84.1818H89.6364C88.8648 84.1818 88.1249 84.4883 87.5793 85.0339C87.0338 85.5794 86.7273 86.3194 86.7273 87.0909C86.7273 87.8624 87.0338 88.6024 87.5793 89.1479C88.1249 89.6935 88.8648 90 89.6364 90H101.273C103.587 90 105.807 89.0805 107.444 87.4438C109.081 85.8072 110 83.5873 110 81.2727V69.6364C110 68.8648 109.694 68.1249 109.148 67.5793C108.602 67.0338 107.862 66.7273 107.091 66.7273ZM101.273 26H89.6364C88.8648 26 88.1249 26.3065 87.5793 26.8521C87.0338 27.3976 86.7273 28.1376 86.7273 28.9091C86.7273 29.6806 87.0338 30.4206 87.5793 30.9661C88.1249 31.5117 88.8648 31.8182 89.6364 31.8182H101.273C102.044 31.8182 102.784 32.1247 103.33 32.6702C103.875 33.2158 104.182 33.9557 104.182 34.7273V46.3636C104.182 47.1352 104.488 47.8751 105.034 48.4207C105.579 48.9662 106.319 49.2727 107.091 49.2727C107.862 49.2727 108.602 48.9662 109.148 48.4207C109.694 47.8751 110 47.1352 110 46.3636V34.7273C110 32.4127 109.081 30.1928 107.444 28.5562C105.807 26.9195 103.587 26 101.273 26ZM48.9091 49.2727C49.6806 49.2727 50.4206 48.9662 50.9661 48.4207C51.5117 47.8751 51.8182 47.1352 51.8182 46.3636V34.7273C51.8182 33.9557 52.1247 33.2158 52.6702 32.6702C53.2158 32.1247 53.9557 31.8182 54.7273 31.8182H66.3636C67.1352 31.8182 67.8751 31.5117 68.4207 30.9661C68.9662 30.4206 69.2727 29.6806 69.2727 28.9091C69.2727 28.1376 68.9662 27.3976 68.4207 26.8521C67.8751 26.3065 67.1352 26 66.3636 26H54.7273C52.4127 26 50.1928 26.9195 48.5562 28.5562C46.9195 30.1928 46 32.4127 46 34.7273V46.3636C46 47.1352 46.3065 47.8751 46.8521 48.4207C47.3976 48.9662 48.1376 49.2727 48.9091 49.2727ZM72.1818 37.6364H60.5455C59.7739 37.6364 59.034 37.9429 58.4884 38.4884C57.9429 39.034 57.6364 39.7739 57.6364 40.5455V52.1818C57.6364 52.9534 57.9429 53.6933 58.4884 54.2389C59.034 54.7844 59.7739 55.0909 60.5455 55.0909H72.1818C72.9534 55.0909 73.6933 54.7844 74.2389 54.2389C74.7844 53.6933 75.0909 52.9534 75.0909 52.1818V40.5455C75.0909 39.7739 74.7844 39.034 74.2389 38.4884C73.6933 37.9429 72.9534 37.6364 72.1818 37.6364ZM69.2727 49.2727H63.4545V43.4545H69.2727V49.2727ZM83.8182 55.0909H95.4545C96.2261 55.0909 96.966 54.7844 97.5116 54.2389C98.0571 53.6933 98.3636 52.9534 98.3636 52.1818V40.5455C98.3636 39.7739 98.0571 39.034 97.5116 38.4884C96.966 37.9429 96.2261 37.6364 95.4545 37.6364H83.8182C83.0466 37.6364 82.3067 37.9429 81.7611 38.4884C81.2156 39.034 80.9091 39.7739 80.9091 40.5455V52.1818C80.9091 52.9534 81.2156 53.6933 81.7611 54.2389C82.3067 54.7844 83.0466 55.0909 83.8182 55.0909ZM86.7273 43.4545H92.5455V49.2727H86.7273V43.4545ZM72.1818 60.9091H60.5455C59.7739 60.9091 59.034 61.2156 58.4884 61.7611C57.9429 62.3067 57.6364 63.0466 57.6364 63.8182V75.4545C57.6364 76.2261 57.9429 76.966 58.4884 77.5116C59.034 78.0571 59.7739 78.3636 60.5455 78.3636H72.1818C72.9534 78.3636 73.6933 78.0571 74.2389 77.5116C74.7844 76.966 75.0909 76.2261 75.0909 75.4545V63.8182C75.0909 63.0466 74.7844 62.3067 74.2389 61.7611C73.6933 61.2156 72.9534 60.9091 72.1818 60.9091ZM69.2727 72.5455H63.4545V66.7273H69.2727V72.5455ZM83.8182 69.6364C84.5897 69.6364 85.3297 69.3299 85.8752 68.7843C86.4208 68.2388 86.7273 67.4988 86.7273 66.7273C87.4988 66.7273 88.2388 66.4208 88.7843 65.8752C89.3299 65.3297 89.6364 64.5897 89.6364 63.8182C89.6364 63.0466 89.3299 62.3067 88.7843 61.7611C88.2388 61.2156 87.4988 60.9091 86.7273 60.9091H83.8182C83.0466 60.9091 82.3067 61.2156 81.7611 61.7611C81.2156 62.3067 80.9091 63.0466 80.9091 63.8182V66.7273C80.9091 67.4988 81.2156 68.2388 81.7611 68.7843C82.3067 69.3299 83.0466 69.6364 83.8182 69.6364ZM95.4545 60.9091C94.683 60.9091 93.9431 61.2156 93.3975 61.7611C92.8519 62.3067 92.5455 63.0466 92.5455 63.8182V72.5455C91.7739 72.5455 91.034 72.8519 90.4884 73.3975C89.9429 73.9431 89.6364 74.683 89.6364 75.4545C89.6364 76.2261 89.9429 76.966 90.4884 77.5116C91.034 78.0571 91.7739 78.3636 92.5455 78.3636H95.4545C96.2261 78.3636 96.966 78.0571 97.5116 77.5116C98.0571 76.966 98.3636 76.2261 98.3636 75.4545V63.8182C98.3636 63.0466 98.0571 62.3067 97.5116 61.7611C96.966 61.2156 96.2261 60.9091 95.4545 60.9091ZM83.8182 72.5455C83.2428 72.5455 82.6804 72.7161 82.202 73.0357C81.7236 73.3554 81.3507 73.8097 81.1305 74.3413C80.9104 74.8729 80.8527 75.4578 80.965 76.0221C81.0772 76.5864 81.3543 77.1047 81.7611 77.5116C82.168 77.9184 82.6863 78.1955 83.2506 78.3077C83.815 78.42 84.3999 78.3624 84.9314 78.1422C85.463 77.922 85.9173 77.5491 86.237 77.0708C86.5567 76.5924 86.7273 76.0299 86.7273 75.4545C86.7273 74.683 86.4208 73.9431 85.8752 73.3975C85.3297 72.8519 84.5897 72.5455 83.8182 72.5455Z" fill="#158A8A"/>
</svg>
